<svg width="60" height="75" viewBox="0 0 60 75" fill="none" xmlns="http://www.w3.org/2000/svg">
<path id="&#232;&#183;&#175;&#229;&#190;&#132;" d="M18.8822 46.4366C18.886 46.4417 18.8899 46.4467 18.8939 46.4517C19.0988 46.707 19.2746 46.9133 19.418 47.0533C19.4872 47.1208 19.5709 47.1949 19.663 47.2495C19.7233 47.2853 19.9559 47.4164 20.2214 47.2945C20.4984 47.1672 20.5415 46.8926 20.5506 46.8188C20.5639 46.7108 20.5547 46.599 20.5427 46.5064C20.5177 46.3136 20.4592 46.0587 20.3815 45.759C20.2726 45.3392 20.1212 44.8109 19.9355 44.1632C19.5669 42.877 19.0633 41.1201 18.4901 38.8075C17.2586 33.8394 15.8973 28.5792 14.7584 24.1778C13.5164 19.3785 12.5387 15.6003 12.2816 14.3357C12.0501 13.1967 12.0711 11.0949 12.8804 9.44485C13.2794 8.63148 13.8593 7.94815 14.6768 7.52633C15.4866 7.10851 16.5796 6.9214 18.0571 7.18219C19.3233 7.60754 20.4331 9.09681 21.247 12.0023C21.2472 12.003 21.2474 12.0036 21.2476 12.0042L25.0978 26.1675L26.0606 29.7093L26.3013 30.5947L26.3615 30.8161L26.3765 30.8714L26.3803 30.8852L26.3812 30.8887L26.3815 30.8896L26.3815 30.8898L26.8641 30.759L26.3816 30.8898C26.4505 31.1433 26.7038 31.3004 26.9615 31.2494C27.2191 31.1985 27.3933 30.9568 27.3602 30.6963L25.6042 16.8827L25.1652 13.4294L25.0555 12.566L25.0281 12.3502L25.0212 12.2962L25.0195 12.2827L25.0193 12.2816L25.0173 12.2638L25.0149 12.2427L25.0126 12.2217L25.0102 12.2007L25.0078 12.1797L25.0054 12.1587L25.0031 12.1378L25.0007 12.117L24.9983 12.0962L24.996 12.0754L24.9936 12.0547L24.9913 12.034L24.989 12.0133L24.9866 11.9927L24.9843 11.9721L24.982 11.9516L24.9796 11.9311L24.9773 11.9107L24.975 11.8903L24.9727 11.8699L24.9704 11.8496L24.9681 11.8293L24.9658 11.8091L24.9635 11.7889L24.9612 11.7687L24.959 11.7486L24.9567 11.7285L24.9544 11.7085L24.9522 11.6885L24.9499 11.6686L24.9476 11.6487L24.9454 11.6288L24.9432 11.609L24.9409 11.5892L24.9387 11.5695L24.9364 11.5498L24.9342 11.5301L24.932 11.5105L24.9298 11.4909L24.9276 11.4714L24.9254 11.4519L24.9232 11.4324L24.921 11.413L24.9188 11.3937L24.9166 11.3743L24.9144 11.355L24.9122 11.3358L24.91 11.3166L24.9079 11.2974L24.9057 11.2783L24.9035 11.2592L24.9014 11.2402L24.8992 11.2212L24.8971 11.2022L24.8949 11.1833L24.8928 11.1645L24.8907 11.1456L24.8885 11.1268L24.8864 11.1081L24.8843 11.0894L24.8822 11.0707L24.8801 11.0521L24.878 11.0335L24.8759 11.015L24.8738 10.9965L24.8717 10.978L24.8696 10.9596L24.8675 10.9412L24.8654 10.9229L24.8634 10.9046L24.8613 10.8863L24.8592 10.8681L24.8572 10.8499L24.8551 10.8318L24.8531 10.8137L24.851 10.7957L24.849 10.7777L24.8469 10.7597L24.8449 10.7418L24.8429 10.7239L24.8409 10.7061L24.8389 10.6883L24.8368 10.6705L24.8348 10.6528L24.8328 10.6351L24.8308 10.6175L24.8288 10.5999L24.8269 10.5824L24.8249 10.5649L24.8229 10.5474L24.8209 10.53L24.8189 10.5126L24.817 10.4952L24.815 10.4779L24.8131 10.4607L24.8111 10.4435L24.8092 10.4263L24.8072 10.4091L24.8053 10.392L24.8034 10.375L24.8014 10.358L24.7995 10.341L24.7976 10.3241L24.7957 10.3072L24.7938 10.2903L24.7919 10.2735L24.79 10.2568L24.7881 10.2401L24.7862 10.2234L24.7843 10.2067L24.7824 10.1901L24.7805 10.1736L24.7787 10.1571L24.7768 10.1406L24.7749 10.1241L24.7731 10.1078L24.7712 10.0914L24.7694 10.0751L24.7675 10.0588L24.7657 10.0426L24.7639 10.0264L24.762 10.0103L24.7602 9.99417L24.7584 9.97811L24.7566 9.96209L24.7548 9.94611L24.753 9.93017L24.7512 9.91427L24.7494 9.89842L24.7476 9.88261L24.7458 9.86683L24.744 9.8511L24.7422 9.83541L24.7405 9.81977L24.7387 9.80416L24.7369 9.78859L24.7352 9.77307L24.7334 9.75759L24.7317 9.74215L24.7299 9.72675L24.7282 9.71139L24.7265 9.69607L24.7247 9.6808L24.723 9.66556L24.7213 9.65037L24.7196 9.63522L24.7178 9.62011L24.7161 9.60504L24.7144 9.59001L24.7127 9.57502L24.711 9.56008L24.7094 9.54517L24.7077 9.53031L24.706 9.51549L24.7043 9.50071L24.7027 9.48597L24.701 9.47127L24.6993 9.45662L24.6977 9.442L24.696 9.42743L24.6944 9.4129L24.6927 9.39841L24.6911 9.38396L24.6895 9.36955L24.6878 9.35519L24.6862 9.34086L24.6846 9.32658L24.683 9.31233L24.6814 9.29813L24.6798 9.28397L24.6782 9.26986L24.6766 9.25578L24.675 9.24174L24.6734 9.22775L24.6718 9.2138L24.6702 9.19988L24.6687 9.18601L24.6671 9.17218L24.6655 9.1584L24.664 9.14465L24.6624 9.13095L24.6609 9.11728L24.6593 9.10366L24.6578 9.09008L24.6563 9.07654L24.6547 9.06304L24.6532 9.04958L24.6517 9.03617L24.6502 9.02279L24.6487 9.00946L24.6472 8.99617L24.6457 8.98292L24.6442 8.96971L24.6427 8.95654L24.6412 8.94342L24.6397 8.93033L24.6382 8.91729L24.6368 8.90429L24.6353 8.89133L24.6338 8.87841L24.6324 8.86553L24.6309 8.85269L24.6295 8.8399L24.628 8.82714L24.6266 8.81443L24.6251 8.80176L24.6237 8.78913L24.6223 8.77654L24.6209 8.76399L24.6194 8.75149L24.618 8.73902L24.6166 8.7266L24.6152 8.71422L24.6138 8.70188L24.6124 8.68958L24.611 8.67732L24.6097 8.6651L24.6083 8.65293L24.6069 8.64079L24.6055 8.6287L24.6042 8.61665L24.6028 8.60464L24.6015 8.59267L24.6001 8.58075L24.5988 8.56886L24.5974 8.55701L24.5961 8.54521L24.5947 8.53345L24.5934 8.52173L24.5921 8.51005L24.5908 8.49841L24.5895 8.48682L24.5882 8.47526L24.5869 8.46375L24.5856 8.45227L24.5843 8.44084L24.583 8.42945L24.5817 8.41811L24.5804 8.4068L24.5791 8.39553L24.5779 8.38431L24.5766 8.37313L24.5753 8.36198L24.5741 8.35088L24.5728 8.33982L24.5716 8.32881L24.5703 8.31783L24.5691 8.3069L24.5678 8.296L24.5666 8.28515L24.5654 8.27434L24.5642 8.26357L24.563 8.25284L24.5617 8.24215L24.5605 8.23151L24.5593 8.2209L24.5581 8.21034L24.557 8.19982L24.5558 8.18934L24.5546 8.1789L24.5534 8.1685L24.5522 8.15815L24.5511 8.14783L24.5499 8.13756L24.5487 8.12733L24.5476 8.11714L24.5464 8.10699L24.5453 8.09688L24.5442 8.08681L24.543 8.07679L24.5419 8.0668L24.5408 8.05686L24.5396 8.04696L24.5385 8.0371L24.5374 8.02728L24.5363 8.0175L24.5352 8.00777L24.5341 7.99807L24.533 7.98842L24.5319 7.97881L24.5308 7.96923L24.5298 7.9597L24.5287 7.95022L24.5276 7.94077L24.5265 7.93136L24.5255 7.922L24.5244 7.91268L24.5234 7.9034L24.5223 7.89416L24.5213 7.88496L24.5202 7.8758L24.5192 7.86669L24.5182 7.85761L24.5172 7.84858L24.5161 7.83959L24.5151 7.83063L24.5141 7.82173L24.5131 7.81286L24.5121 7.80403L24.5111 7.79525L24.5101 7.7865L24.5091 7.7778L24.5082 7.76914L24.5072 7.76052L24.5062 7.75194L24.5052 7.7434L24.5043 7.73491L24.5033 7.72645L24.5024 7.71804L24.5014 7.70967L24.5005 7.70134L24.4995 7.69305L24.4986 7.6848L24.4977 7.67659L24.4968 7.66843L24.4958 7.66031L24.4949 7.65222L24.494 7.64418L24.4931 7.63618L24.4922 7.62822L24.4913 7.62031L24.4904 7.61243L24.4895 7.6046L24.4886 7.5968L24.4878 7.58905L24.4869 7.58134L24.486 7.57367L24.4852 7.56605L24.4843 7.55846L24.4834 7.55091L24.4826 7.54341L24.4817 7.53595L24.4809 7.52853L24.4801 7.52115L24.4792 7.51381L24.4784 7.50651L24.4776 7.49926L24.4768 7.49204L24.476 7.48487L24.4752 7.47774L24.4744 7.47065L24.4736 7.4636L24.4728 7.45659L24.472 7.44963L24.4712 7.4427L24.4704 7.43582L24.4696 7.42898L24.4689 7.42218L24.4681 7.41542L24.4673 7.4087L24.4666 7.40202L24.4658 7.39539L24.4651 7.38879L24.4643 7.38224L24.4636 7.37573L24.4629 7.36926L24.4621 7.36283L24.4614 7.35644L24.4607 7.3501L24.46 7.34379L24.4593 7.33753L24.4586 7.33131L24.4579 7.32512L24.4572 7.31899L24.4565 7.31289L24.4558 7.30683L24.4551 7.30082L24.4544 7.29484L24.4538 7.28891L24.4531 7.28302L24.4524 7.27717L24.4518 7.27136L24.4511 7.26559L24.4505 7.25987L24.4498 7.25418L24.4492 7.24854L24.4486 7.24294L24.4479 7.23738L24.4473 7.23186L24.4467 7.22638L24.4461 7.22094L24.4455 7.21555L24.4448 7.21019L24.4442 7.20488L24.4436 7.19961L24.4431 7.19438L24.4425 7.18919L24.4419 7.18405L24.4413 7.17894L24.4407 7.17387L24.4402 7.16885L24.4396 7.16387L24.439 7.15893L24.4385 7.15403L24.4379 7.14917L24.4374 7.14436L24.4368 7.13958L24.4363 7.13485L24.4358 7.13016L24.4353 7.1255L24.4347 7.1209L24.4342 7.11633L24.4337 7.1118L24.4332 7.10731L24.4327 7.10287L24.4322 7.09847L24.4317 7.09411L24.4312 7.08979L24.4307 7.08551L24.4302 7.08127L24.4298 7.07707L24.4293 7.07292L24.4288 7.0688L24.4284 7.06473L24.4279 7.0607L24.4275 7.05671L24.427 7.05276L24.4266 7.04886L24.4261 7.04499L24.4257 7.04117L24.4253 7.03738L24.4248 7.03364L24.4244 7.02994L24.424 7.02628L24.4236 7.02267L24.4232 7.01909L24.4228 7.01556L24.4224 7.01206L24.422 7.00861L24.4216 7.0052L24.4212 7.00183L24.4209 6.9985L24.4205 6.99522L24.4201 6.99197L24.4198 6.98877L24.4194 6.9856L24.419 6.98248L24.4187 6.9794L24.4184 6.97636L24.418 6.97337L24.4177 6.97041L24.4174 6.9675L24.417 6.96462L24.4167 6.96179L24.4164 6.959L24.4161 6.95625L24.4158 6.95354L24.4155 6.95088L24.4152 6.94825L24.4149 6.94567L24.4146 6.94312L24.4143 6.94062L24.414 6.93816L24.4138 6.93574L24.4135 6.93337L24.4132 6.93103L24.413 6.92874L24.4127 6.92648L24.4125 6.92427L24.4122 6.9221L24.412 6.91997L24.4117 6.91789L24.4115 6.91584L24.4113 6.91383L24.4111 6.91187L24.4108 6.90995L24.4106 6.90807L24.4104 6.90623L24.4102 6.90443L24.41 6.90267L24.4098 6.90096L24.4096 6.89928L24.4094 6.89765L24.4093 6.89606L24.4091 6.89451L24.4089 6.893L24.4087 6.89153L24.4086 6.8901L24.4084 6.88872L24.4083 6.88737L24.4081 6.88607L24.408 6.88481L24.4078 6.88359L24.4077 6.88241L24.4076 6.88128L24.4075 6.88018L24.4073 6.87913L24.4072 6.87811L24.4071 6.87714L24.407 6.87621L24.4069 6.87532L24.4068 6.87448L24.4067 6.87367L24.4066 6.87291L24.4066 6.87218L24.4065 6.8715L24.4064 6.87086L24.4063 6.87026L24.4063 6.87002L24.4063 6.8697L24.4062 6.86918L24.4062 6.86871L24.4061 6.86831C24.1979 4.89224 24.5208 3.53236 25.2463 2.67341C25.9647 1.82303 27.1757 1.34957 29.0154 1.37052C29.0348 1.37074 29.0542 1.36983 29.0735 1.36779C30.0825 1.26135 30.9353 1.60224 31.6716 2.44253C32.4266 3.30423 33.0615 4.69847 33.5405 6.68446L35.9381 23.0004L36.5383 27.085L36.6884 28.1062L36.7259 28.3614L36.7353 28.4253L36.7376 28.4412L36.7382 28.4452L36.7383 28.4458L36.7383 28.4462L36.7384 28.4465L37.2332 28.3742L36.7384 28.4465C36.7754 28.6985 36.996 28.8825 37.2506 28.8738C37.5051 28.8651 37.7124 28.6665 37.7318 28.4126L38.971 12.2002L39.2808 8.14708L39.3582 7.13381L39.3776 6.88049L39.3824 6.81716L39.3835 6.803C39.6083 4.66665 40.2338 3.32899 41.1466 2.6317C42.0445 1.94577 43.3545 1.78053 45.1986 2.31002L45.199 2.31012C46.2688 2.61645 47.0525 3.24154 47.5771 4.20154C48.1088 5.17455 48.3891 6.52062 48.3745 8.27868L46.945 24.0954L46.5871 28.0547L46.4977 29.0445L46.4753 29.2919L46.4697 29.3538L46.4683 29.3693L46.468 29.3731L46.4679 29.3741L46.4679 29.3744L46.9659 29.4197L46.4679 29.3744C46.4448 29.6301 46.6192 29.8619 46.8714 29.9106C47.1236 29.9593 47.3716 29.809 47.4451 29.5631C48.8445 24.8795 49.8902 21.3948 50.586 19.0812C50.9339 17.9244 51.1944 17.0603 51.3678 16.4854L51.5628 15.8397L51.6115 15.6787L51.6237 15.6385L51.6245 15.6358C52.378 13.4992 53.2649 12.1977 54.2257 11.593C55.1346 11.021 56.2064 11.0159 57.5342 11.7281C58.5991 12.4409 59.0943 13.3502 59.2586 14.4947C59.4291 15.6819 59.2428 17.1204 58.9025 18.8544C58.3766 21.5341 57.966 23.574 57.6379 25.2041C56.4306 31.2021 56.3402 31.6511 55.7337 38.0058C55.5685 39.7367 55.5507 41.836 55.5313 44.1185C55.5278 44.5264 55.5243 44.9402 55.5199 45.3587C55.4907 48.1329 55.4224 51.1421 55.0771 54.1471C54.3862 60.158 52.5964 66.0597 47.8951 69.9829C38.4871 76.0397 27.836 74.2024 21.5561 67.423C16.4807 61.9438 15.4293 60.343 13.1926 56.9377C12.5982 56.0329 11.9202 55.0006 11.0608 53.7343C9.00849 50.7105 7.1193 48.229 5.53689 46.1849C5.30428 45.8844 5.07874 45.5939 4.8606 45.313C3.58777 43.6736 2.56703 42.359 1.8648 41.2782C1.05611 40.0336 0.533162 38.7032 0.506593 37.4981C0.480698 36.3236 0.922341 35.244 2.11135 34.4156C4.55032 32.7161 8.39395 33.1091 10.9895 35.7497C11.8696 36.645 12.8486 37.9706 14.1173 39.7662C14.3976 40.163 14.6915 40.5818 15.0006 41.0223C16.0818 42.5631 17.35 44.3704 18.8822 46.4366Z" stroke="white" stroke-linecap="round" stroke-linejoin="round"/>
</svg>
