<svg width="32" height="32" viewBox="0 0 32 32" fill="none" xmlns="http://www.w3.org/2000/svg">
<g id="Frame 2219">
<circle id="Ellipse 60" cx="16" cy="16" r="16" fill="#ECECEE"/>
<path id="Vector" d="M14.1195 10.7166C14.4607 11.0581 14.4607 11.6116 14.1195 11.9534L10.9459 15.1266L23.1677 15.1266C23.6509 15.1272 24.0421 15.5193 24.0416 16.0027C24.0411 16.4851 23.65 16.8761 23.1677 16.8766L10.9484 16.8766L14.1195 20.0488C14.4613 20.3906 14.4613 20.9448 14.1195 21.2866C13.7777 21.6284 13.2234 21.6284 12.8816 21.2866L8.21484 16.6199C7.87332 16.2789 7.87305 15.7254 8.21402 15.3842L8.21484 15.3834L12.8816 10.7166C13.2231 10.3748 13.7777 10.3748 14.1195 10.7166Z" fill="black"/>
</g>
</svg>
